<svg xmlns="http://www.w3.org/2000/svg" version="1.1" xmlns:xlink="http://www.w3.org/1999/xlink" xmlns:svgjs="http://svgjs.com/svgjs" width="360" height="812" preserveAspectRatio="none" viewBox="0 0 360 812"><g mask="url(&quot;#SvgjsMask1060&quot;)" fill="none"><rect width="360" height="812" x="0" y="0" fill="url(#SvgjsLinearGradient1061)"></rect><path d="M-75.37 476.11L-75.37 476.11" stroke="#132e65" stroke-width="1.5"></path><path d="M-75.37 476.11L40.21 533.58" stroke="#132e65" stroke-width="1.5"></path><path d="M-75.37 476.11L-60.99 679.57" stroke="#132e65" stroke-width="1.5"></path><path d="M-75.37 476.11L69.36 640.57" stroke="#132e65" stroke-width="1.5"></path><path d="M-75.37 476.11L151.33 462.87" stroke="#132e65" stroke-width="1.5"></path><path d="M-75.37 476.11L158.12 372.56" stroke="#132e65" stroke-width="1.5"></path><path d="M-60.99 679.57L-60.99 679.57" stroke="#132e65" stroke-width="1.5"></path><path d="M-60.99 679.57L69.36 640.57" stroke="#132e65" stroke-width="1.5"></path><path d="M-60.99 679.57L62.75 766.9" stroke="#132e65" stroke-width="1.5"></path><path d="M-43.83 851.38L-43.83 851.38" stroke="#132e65" stroke-width="1.5"></path><path d="M-43.83 851.38L43.51 855.95" stroke="#132e65" stroke-width="1.5"></path><path d="M-43.83 851.38L62.75 766.9" stroke="#132e65" stroke-width="1.5"></path><path d="M-43.83 851.38L-60.99 679.57" stroke="#132e65" stroke-width="1.5"></path><path d="M-43.83 851.38L133.32 837.51" stroke="#132e65" stroke-width="1.5"></path><path d="M-43.83 851.38L143.24 752.32" stroke="#132e65" stroke-width="1.5"></path><path d="M-43.83 851.38L69.36 640.57" stroke="#132e65" stroke-width="1.5"></path><path d="M40.21 533.58L40.21 533.58" stroke="#132e65" stroke-width="1.5"></path><path d="M40.21 533.58L69.36 640.57" stroke="#132e65" stroke-width="1.5"></path><path d="M40.21 533.58L151.33 462.87" stroke="#132e65" stroke-width="1.5"></path><path d="M40.21 533.58L170.22 564.02" stroke="#132e65" stroke-width="1.5"></path><path d="M40.21 533.58L129.39 648.25" stroke="#132e65" stroke-width="1.5"></path><path d="M69.36 640.57L69.36 640.57" stroke="#132e65" stroke-width="1.5"></path><path d="M69.36 640.57L129.39 648.25" stroke="#132e65" stroke-width="1.5"></path><path d="M62.75 766.9L62.75 766.9" stroke="#132e65" stroke-width="1.5"></path><path d="M62.75 766.9L143.24 752.32" stroke="#132e65" stroke-width="1.5"></path><path d="M62.75 766.9L43.51 855.95" stroke="#132e65" stroke-width="1.5"></path><path d="M62.75 766.9L133.32 837.51" stroke="#132e65" stroke-width="1.5"></path><path d="M62.75 766.9L69.36 640.57" stroke="#132e65" stroke-width="1.5"></path><path d="M43.51 855.95L43.51 855.95" stroke="#132e65" stroke-width="1.5"></path><path d="M43.51 855.95L133.32 837.51" stroke="#132e65" stroke-width="1.5"></path><path d="M43.51 855.95L143.24 752.32" stroke="#132e65" stroke-width="1.5"></path><path d="M43.51 855.95L-60.99 679.57" stroke="#132e65" stroke-width="1.5"></path><path d="M43.51 855.95L69.36 640.57" stroke="#132e65" stroke-width="1.5"></path><path d="M158.12 372.56L158.12 372.56" stroke="#132e65" stroke-width="1.5"></path><path d="M158.12 372.56L229.69 376.61" stroke="#132e65" stroke-width="1.5"></path><path d="M158.12 372.56L151.33 462.87" stroke="#132e65" stroke-width="1.5"></path><path d="M158.12 372.56L252.77 451.46" stroke="#132e65" stroke-width="1.5"></path><path d="M151.33 462.87L151.33 462.87" stroke="#132e65" stroke-width="1.5"></path><path d="M151.33 462.87L252.77 451.46" stroke="#132e65" stroke-width="1.5"></path><path d="M151.33 462.87L170.22 564.02" stroke="#132e65" stroke-width="1.5"></path><path d="M151.33 462.87L229.69 376.61" stroke="#132e65" stroke-width="1.5"></path><path d="M170.22 564.02L170.22 564.02" stroke="#132e65" stroke-width="1.5"></path><path d="M170.22 564.02L129.39 648.25" stroke="#132e65" stroke-width="1.5"></path><path d="M170.22 564.02L278 577.23" stroke="#132e65" stroke-width="1.5"></path><path d="M129.39 648.25L129.39 648.25" stroke="#132e65" stroke-width="1.5"></path><path d="M129.39 648.25L143.24 752.32" stroke="#132e65" stroke-width="1.5"></path><path d="M143.24 752.32L143.24 752.32" stroke="#132e65" stroke-width="1.5"></path><path d="M143.24 752.32L133.32 837.51" stroke="#132e65" stroke-width="1.5"></path><path d="M133.32 837.51L133.32 837.51" stroke="#132e65" stroke-width="1.5"></path><path d="M133.32 837.51L272.09 854.75" stroke="#132e65" stroke-width="1.5"></path><path d="M274.92 -53.39L274.92 -53.39" stroke="#132e65" stroke-width="1.5"></path><path d="M274.92 -53.39L371.1 -65.15" stroke="#132e65" stroke-width="1.5"></path><path d="M274.92 -53.39L277.97 56.62" stroke="#132e65" stroke-width="1.5"></path><path d="M274.92 -53.39L350.96 44.73" stroke="#132e65" stroke-width="1.5"></path><path d="M274.92 -53.39L436.57 39.5" stroke="#132e65" stroke-width="1.5"></path><path d="M274.92 -53.39L470.06 -66.31" stroke="#132e65" stroke-width="1.5"></path><path d="M274.92 -53.39L268.04 162.81" stroke="#132e65" stroke-width="1.5"></path><path d="M277.97 56.62L277.97 56.62" stroke="#132e65" stroke-width="1.5"></path><path d="M277.97 56.62L350.96 44.73" stroke="#132e65" stroke-width="1.5"></path><path d="M268.04 162.81L268.04 162.81" stroke="#132e65" stroke-width="1.5"></path><path d="M268.04 162.81L249.85 261.38" stroke="#132e65" stroke-width="1.5"></path><path d="M268.04 162.81L277.97 56.62" stroke="#132e65" stroke-width="1.5"></path><path d="M268.04 162.81L377.2 168.09" stroke="#132e65" stroke-width="1.5"></path><path d="M268.04 162.81L353.91 273.77" stroke="#132e65" stroke-width="1.5"></path><path d="M268.04 162.81L350.96 44.73" stroke="#132e65" stroke-width="1.5"></path><path d="M268.04 162.81L470.15 141.89" stroke="#132e65" stroke-width="1.5"></path><path d="M249.85 261.38L249.85 261.38" stroke="#132e65" stroke-width="1.5"></path><path d="M249.85 261.38L353.91 273.77" stroke="#132e65" stroke-width="1.5"></path><path d="M249.85 261.38L229.69 376.61" stroke="#132e65" stroke-width="1.5"></path><path d="M229.69 376.61L229.69 376.61" stroke="#132e65" stroke-width="1.5"></path><path d="M229.69 376.61L252.77 451.46" stroke="#132e65" stroke-width="1.5"></path><path d="M252.77 451.46L252.77 451.46" stroke="#132e65" stroke-width="1.5"></path><path d="M252.77 451.46L359.19 446.12" stroke="#132e65" stroke-width="1.5"></path><path d="M252.77 451.46L346.74 372.25" stroke="#132e65" stroke-width="1.5"></path><path d="M278 577.23L278 577.23" stroke="#132e65" stroke-width="1.5"></path><path d="M278 577.23L367.41 569.71" stroke="#132e65" stroke-width="1.5"></path><path d="M278 577.23L338.98 684.04" stroke="#132e65" stroke-width="1.5"></path><path d="M278 577.23L252.77 451.46" stroke="#132e65" stroke-width="1.5"></path><path d="M278 577.23L359.19 446.12" stroke="#132e65" stroke-width="1.5"></path><path d="M278 577.23L129.39 648.25" stroke="#132e65" stroke-width="1.5"></path><path d="M272.09 854.75L272.09 854.75" stroke="#132e65" stroke-width="1.5"></path><path d="M272.09 854.75L364.4 838.71" stroke="#132e65" stroke-width="1.5"></path><path d="M371.1 -65.15L371.1 -65.15" stroke="#132e65" stroke-width="1.5"></path><path d="M371.1 -65.15L470.06 -66.31" stroke="#132e65" stroke-width="1.5"></path><path d="M371.1 -65.15L350.96 44.73" stroke="#132e65" stroke-width="1.5"></path><path d="M350.96 44.73L350.96 44.73" stroke="#132e65" stroke-width="1.5"></path><path d="M350.96 44.73L436.57 39.5" stroke="#132e65" stroke-width="1.5"></path><path d="M377.2 168.09L377.2 168.09" stroke="#132e65" stroke-width="1.5"></path><path d="M377.2 168.09L470.15 141.89" stroke="#132e65" stroke-width="1.5"></path><path d="M353.91 273.77L353.91 273.77" stroke="#132e65" stroke-width="1.5"></path><path d="M353.91 273.77L346.74 372.25" stroke="#132e65" stroke-width="1.5"></path><path d="M353.91 273.77L377.2 168.09" stroke="#132e65" stroke-width="1.5"></path><path d="M353.91 273.77L478.13 265.82" stroke="#132e65" stroke-width="1.5"></path><path d="M346.74 372.25L346.74 372.25" stroke="#132e65" stroke-width="1.5"></path><path d="M346.74 372.25L359.19 446.12" stroke="#132e65" stroke-width="1.5"></path><path d="M346.74 372.25L442.13 372.07" stroke="#132e65" stroke-width="1.5"></path><path d="M359.19 446.12L359.19 446.12" stroke="#132e65" stroke-width="1.5"></path><path d="M367.41 569.71L367.41 569.71" stroke="#132e65" stroke-width="1.5"></path><path d="M367.41 569.71L473.86 542.98" stroke="#132e65" stroke-width="1.5"></path><path d="M367.41 569.71L338.98 684.04" stroke="#132e65" stroke-width="1.5"></path><path d="M367.41 569.71L359.19 446.12" stroke="#132e65" stroke-width="1.5"></path><path d="M367.41 569.71L433.32 676.28" stroke="#132e65" stroke-width="1.5"></path><path d="M367.41 569.71L474.09 445.67" stroke="#132e65" stroke-width="1.5"></path><path d="M338.98 684.04L338.98 684.04" stroke="#132e65" stroke-width="1.5"></path><path d="M338.98 684.04L335.04 739.22" stroke="#132e65" stroke-width="1.5"></path><path d="M338.98 684.04L433.32 676.28" stroke="#132e65" stroke-width="1.5"></path><path d="M335.04 739.22L335.04 739.22" stroke="#132e65" stroke-width="1.5"></path><path d="M335.04 739.22L364.4 838.71" stroke="#132e65" stroke-width="1.5"></path><path d="M335.04 739.22L433.32 676.28" stroke="#132e65" stroke-width="1.5"></path><path d="M335.04 739.22L450.17 766.35" stroke="#132e65" stroke-width="1.5"></path><path d="M364.4 838.71L364.4 838.71" stroke="#132e65" stroke-width="1.5"></path><path d="M470.06 -66.31L470.06 -66.31" stroke="#132e65" stroke-width="1.5"></path><path d="M470.06 -66.31L436.57 39.5" stroke="#132e65" stroke-width="1.5"></path><path d="M470.06 -66.31L350.96 44.73" stroke="#132e65" stroke-width="1.5"></path><path d="M470.06 -66.31L470.15 141.89" stroke="#132e65" stroke-width="1.5"></path><path d="M436.57 39.5L436.57 39.5" stroke="#132e65" stroke-width="1.5"></path><path d="M436.57 39.5L470.15 141.89" stroke="#132e65" stroke-width="1.5"></path><path d="M436.57 39.5L371.1 -65.15" stroke="#132e65" stroke-width="1.5"></path><path d="M470.15 141.89L470.15 141.89" stroke="#132e65" stroke-width="1.5"></path><path d="M470.15 141.89L478.13 265.82" stroke="#132e65" stroke-width="1.5"></path><path d="M470.15 141.89L350.96 44.73" stroke="#132e65" stroke-width="1.5"></path><path d="M470.15 141.89L353.91 273.77" stroke="#132e65" stroke-width="1.5"></path><path d="M478.13 265.82L478.13 265.82" stroke="#132e65" stroke-width="1.5"></path><path d="M478.13 265.82L442.13 372.07" stroke="#132e65" stroke-width="1.5"></path><path d="M442.13 372.07L442.13 372.07" stroke="#132e65" stroke-width="1.5"></path><path d="M442.13 372.07L474.09 445.67" stroke="#132e65" stroke-width="1.5"></path><path d="M442.13 372.07L359.19 446.12" stroke="#132e65" stroke-width="1.5"></path><path d="M442.13 372.07L353.91 273.77" stroke="#132e65" stroke-width="1.5"></path><path d="M474.09 445.67L474.09 445.67" stroke="#132e65" stroke-width="1.5"></path><path d="M474.09 445.67L473.86 542.98" stroke="#132e65" stroke-width="1.5"></path><path d="M474.09 445.67L359.19 446.12" stroke="#132e65" stroke-width="1.5"></path><path d="M474.09 445.67L346.74 372.25" stroke="#132e65" stroke-width="1.5"></path><path d="M473.86 542.98L473.86 542.98" stroke="#132e65" stroke-width="1.5"></path><path d="M473.86 542.98L433.32 676.28" stroke="#132e65" stroke-width="1.5"></path><path d="M473.86 542.98L359.19 446.12" stroke="#132e65" stroke-width="1.5"></path><path d="M473.86 542.98L442.13 372.07" stroke="#132e65" stroke-width="1.5"></path><path d="M473.86 542.98L338.98 684.04" stroke="#132e65" stroke-width="1.5"></path><path d="M433.32 676.28L433.32 676.28" stroke="#132e65" stroke-width="1.5"></path><path d="M433.32 676.28L450.17 766.35" stroke="#132e65" stroke-width="1.5"></path><path d="M450.17 766.35L450.17 766.35" stroke="#132e65" stroke-width="1.5"></path><path d="M450.17 766.35L364.4 838.71" stroke="#132e65" stroke-width="1.5"></path><path d="M450.17 766.35L338.98 684.04" stroke="#132e65" stroke-width="1.5"></path><path d="M450.17 766.35L272.09 854.75" stroke="#132e65" stroke-width="1.5"></path><path d="M450.17 766.35L367.41 569.71" stroke="#132e65" stroke-width="1.5"></path><circle r="5" cx="-75.37" cy="476.11" fill="#132e65"></circle><circle r="5" cx="-60.99" cy="679.57" fill="#132e65"></circle><circle r="5" cx="-43.83" cy="851.38" fill="#132e65"></circle><circle r="5" cx="40.21" cy="533.58" fill="#132e65"></circle><circle r="5" cx="69.36" cy="640.57" fill="#132e65"></circle><circle r="5" cx="62.75" cy="766.9" fill="#132e65"></circle><circle r="5" cx="43.51" cy="855.95" fill="#132e65"></circle><circle r="5" cx="158.12" cy="372.56" fill="#132e65"></circle><circle r="5" cx="151.33" cy="462.87" fill="#132e65"></circle><circle r="5" cx="170.22" cy="564.02" fill="#132e65"></circle><circle r="5" cx="129.39" cy="648.25" fill="#132e65"></circle><circle r="5" cx="143.24" cy="752.32" fill="#132e65"></circle><circle r="5" cx="133.32" cy="837.51" fill="#132e65"></circle><circle r="5" cx="274.92" cy="-53.39" fill="#132e65"></circle><circle r="5" cx="277.97" cy="56.62" fill="#132e65"></circle><circle r="5" cx="268.04" cy="162.81" fill="#132e65"></circle><circle r="5" cx="249.85" cy="261.38" fill="#132e65"></circle><circle r="5" cx="229.69" cy="376.61" fill="#132e65"></circle><circle r="5" cx="252.77" cy="451.46" fill="#132e65"></circle><circle r="5" cx="278" cy="577.23" fill="#132e65"></circle><circle r="5" cx="272.09" cy="854.75" fill="#132e65"></circle><circle r="5" cx="371.1" cy="-65.15" fill="#132e65"></circle><circle r="5" cx="350.96" cy="44.73" fill="#132e65"></circle><circle r="5" cx="377.2" cy="168.09" fill="#132e65"></circle><circle r="5" cx="353.91" cy="273.77" fill="#132e65"></circle><circle r="5" cx="346.74" cy="372.25" fill="#132e65"></circle><circle r="5" cx="359.19" cy="446.12" fill="#132e65"></circle><circle r="5" cx="367.41" cy="569.71" fill="#132e65"></circle><circle r="5" cx="338.98" cy="684.04" fill="#132e65"></circle><circle r="5" cx="335.04" cy="739.22" fill="#132e65"></circle><circle r="5" cx="364.4" cy="838.71" fill="#132e65"></circle><circle r="5" cx="470.06" cy="-66.31" fill="#132e65"></circle><circle r="5" cx="436.57" cy="39.5" fill="#132e65"></circle><circle r="5" cx="470.15" cy="141.89" fill="#132e65"></circle><circle r="5" cx="478.13" cy="265.82" fill="#132e65"></circle><circle r="5" cx="442.13" cy="372.07" fill="#132e65"></circle><circle r="5" cx="474.09" cy="445.67" fill="#132e65"></circle><circle r="5" cx="473.86" cy="542.98" fill="#132e65"></circle><circle r="5" cx="433.32" cy="676.28" fill="#132e65"></circle><circle r="5" cx="450.17" cy="766.35" fill="#132e65"></circle><path d="M149.98 753.74L149.98 753.74" stroke="hsl(228.5, 77.2%, 51.5%)" stroke-width="1.5"></path><path d="M149.98 753.74L51.49 767.4" stroke="hsl(228.5, 77.2%, 51.5%)" stroke-width="1.5"></path><path d="M149.98 753.74L157.1 857.4" stroke="hsl(228.5, 77.2%, 51.5%)" stroke-width="1.5"></path><path d="M157.1 857.4L157.1 857.4" stroke="hsl(228.5, 77.2%, 51.5%)" stroke-width="1.5"></path><path d="M157.1 857.4L245.38 867.61" stroke="hsl(228.5, 77.2%, 51.5%)" stroke-width="1.5"></path><path d="M157.1 857.4L30.91 877.67" stroke="hsl(228.5, 77.2%, 51.5%)" stroke-width="1.5"></path><path d="M376.47 264.17L376.47 264.17" stroke="hsl(228.5, 77.2%, 51.5%)" stroke-width="1.5"></path><path d="M376.47 264.17L471.55 245.73" stroke="hsl(228.5, 77.2%, 51.5%)" stroke-width="1.5"></path><path d="M376.47 264.17L439.03 346.82" stroke="hsl(228.5, 77.2%, 51.5%)" stroke-width="1.5"></path><path d="M376.47 264.17L362.05 159.5" stroke="hsl(228.5, 77.2%, 51.5%)" stroke-width="1.5"></path><path d="M376.47 264.17L434.94 171.88" stroke="hsl(228.5, 77.2%, 51.5%)" stroke-width="1.5"></path><path d="M360.42 551.39L360.42 551.39" stroke="hsl(228.5, 77.2%, 51.5%)" stroke-width="1.5"></path><path d="M360.42 551.39L474.86 561.83" stroke="hsl(228.5, 77.2%, 51.5%)" stroke-width="1.5"></path><path d="M360.42 551.39L245.15 577.51" stroke="hsl(228.5, 77.2%, 51.5%)" stroke-width="1.5"></path><path d="M360.42 551.39L454.43 640.03" stroke="hsl(228.5, 77.2%, 51.5%)" stroke-width="1.5"></path><path d="M360.42 551.39L242.23 459.56" stroke="hsl(228.5, 77.2%, 51.5%)" stroke-width="1.5"></path><path d="M379.96 741.23L379.96 741.23" stroke="hsl(228.5, 77.2%, 51.5%)" stroke-width="1.5"></path><path d="M379.96 741.23L456.47 768.1" stroke="hsl(228.5, 77.2%, 51.5%)" stroke-width="1.5"></path><path d="M379.96 741.23L332.55 856.84" stroke="hsl(228.5, 77.2%, 51.5%)" stroke-width="1.5"></path><path d="M379.96 741.23L454.43 640.03" stroke="hsl(228.5, 77.2%, 51.5%)" stroke-width="1.5"></path><path d="M433.66 35.14L433.66 35.14" stroke="hsl(228.5, 77.2%, 51.5%)" stroke-width="1.5"></path><path d="M433.66 35.14L368.38 29.16" stroke="hsl(228.5, 77.2%, 51.5%)" stroke-width="1.5"></path><path d="M433.66 35.14L365.04 -26.99" stroke="hsl(228.5, 77.2%, 51.5%)" stroke-width="1.5"></path><path d="M433.66 35.14L478.21 -66.61" stroke="hsl(228.5, 77.2%, 51.5%)" stroke-width="1.5"></path><path d="M434.94 171.88L434.94 171.88" stroke="hsl(228.5, 77.2%, 51.5%)" stroke-width="1.5"></path><path d="M434.94 171.88L362.05 159.5" stroke="hsl(228.5, 77.2%, 51.5%)" stroke-width="1.5"></path><path d="M434.94 171.88L471.55 245.73" stroke="hsl(228.5, 77.2%, 51.5%)" stroke-width="1.5"></path><path d="M434.94 171.88L433.66 35.14" stroke="hsl(228.5, 77.2%, 51.5%)" stroke-width="1.5"></path><path d="M434.94 171.88L368.38 29.16" stroke="hsl(228.5, 77.2%, 51.5%)" stroke-width="1.5"></path><path d="M439.03 346.82L439.03 346.82" stroke="hsl(228.5, 77.2%, 51.5%)" stroke-width="1.5"></path><path d="M439.03 346.82L348.8 374.39" stroke="hsl(228.5, 77.2%, 51.5%)" stroke-width="1.5"></path><path d="M439.03 346.82L463.14 438.65" stroke="hsl(228.5, 77.2%, 51.5%)" stroke-width="1.5"></path><path d="M-61.67 778.68L-61.67 778.68" stroke="hsl(228.5, 77.2%, 51.5%)" stroke-width="1.5"></path><path d="M-61.67 778.68L51.49 767.4" stroke="hsl(228.5, 77.2%, 51.5%)" stroke-width="1.5"></path><path d="M-61.67 778.68L30.91 877.67" stroke="hsl(228.5, 77.2%, 51.5%)" stroke-width="1.5"></path><path d="M-61.67 778.68L33.86 650.28" stroke="hsl(228.5, 77.2%, 51.5%)" stroke-width="1.5"></path><path d="M-61.67 778.68L149.98 753.74" stroke="hsl(228.5, 77.2%, 51.5%)" stroke-width="1.5"></path><path d="M33.86 650.28L33.86 650.28" stroke="hsl(228.5, 77.2%, 51.5%)" stroke-width="1.5"></path><path d="M33.86 650.28L151.92 643.2" stroke="hsl(228.5, 77.2%, 51.5%)" stroke-width="1.5"></path><path d="M33.86 650.28L51.49 767.4" stroke="hsl(228.5, 77.2%, 51.5%)" stroke-width="1.5"></path><path d="M33.86 650.28L149.98 753.74" stroke="hsl(228.5, 77.2%, 51.5%)" stroke-width="1.5"></path><path d="M51.49 767.4L51.49 767.4" stroke="hsl(228.5, 77.2%, 51.5%)" stroke-width="1.5"></path><path d="M51.49 767.4L30.91 877.67" stroke="hsl(228.5, 77.2%, 51.5%)" stroke-width="1.5"></path><path d="M30.91 877.67L30.91 877.67" stroke="hsl(228.5, 77.2%, 51.5%)" stroke-width="1.5"></path><path d="M30.91 877.67L149.98 753.74" stroke="hsl(228.5, 77.2%, 51.5%)" stroke-width="1.5"></path><path d="M30.91 877.67L245.38 867.61" stroke="hsl(228.5, 77.2%, 51.5%)" stroke-width="1.5"></path><path d="M151.92 643.2L151.92 643.2" stroke="hsl(228.5, 77.2%, 51.5%)" stroke-width="1.5"></path><path d="M151.92 643.2L246.69 680.31" stroke="hsl(228.5, 77.2%, 51.5%)" stroke-width="1.5"></path><path d="M151.92 643.2L149.98 753.74" stroke="hsl(228.5, 77.2%, 51.5%)" stroke-width="1.5"></path><path d="M151.92 643.2L245.15 577.51" stroke="hsl(228.5, 77.2%, 51.5%)" stroke-width="1.5"></path><path d="M151.92 643.2L51.49 767.4" stroke="hsl(228.5, 77.2%, 51.5%)" stroke-width="1.5"></path><path d="M151.92 643.2L255.82 767.57" stroke="hsl(228.5, 77.2%, 51.5%)" stroke-width="1.5"></path><path d="M269.92 230.15L269.92 230.15" stroke="hsl(228.5, 77.2%, 51.5%)" stroke-width="1.5"></path><path d="M269.92 230.15L272.14 338.56" stroke="hsl(228.5, 77.2%, 51.5%)" stroke-width="1.5"></path><path d="M269.92 230.15L376.47 264.17" stroke="hsl(228.5, 77.2%, 51.5%)" stroke-width="1.5"></path><path d="M269.92 230.15L362.05 159.5" stroke="hsl(228.5, 77.2%, 51.5%)" stroke-width="1.5"></path><path d="M269.92 230.15L348.8 374.39" stroke="hsl(228.5, 77.2%, 51.5%)" stroke-width="1.5"></path><path d="M269.92 230.15L434.94 171.88" stroke="hsl(228.5, 77.2%, 51.5%)" stroke-width="1.5"></path><path d="M269.92 230.15L471.55 245.73" stroke="hsl(228.5, 77.2%, 51.5%)" stroke-width="1.5"></path><path d="M272.14 338.56L272.14 338.56" stroke="hsl(228.5, 77.2%, 51.5%)" stroke-width="1.5"></path><path d="M272.14 338.56L348.8 374.39" stroke="hsl(228.5, 77.2%, 51.5%)" stroke-width="1.5"></path><path d="M272.14 338.56L242.23 459.56" stroke="hsl(228.5, 77.2%, 51.5%)" stroke-width="1.5"></path><path d="M272.14 338.56L376.47 264.17" stroke="hsl(228.5, 77.2%, 51.5%)" stroke-width="1.5"></path><path d="M242.23 459.56L242.23 459.56" stroke="hsl(228.5, 77.2%, 51.5%)" stroke-width="1.5"></path><path d="M242.23 459.56L245.15 577.51" stroke="hsl(228.5, 77.2%, 51.5%)" stroke-width="1.5"></path><path d="M242.23 459.56L348.8 374.39" stroke="hsl(228.5, 77.2%, 51.5%)" stroke-width="1.5"></path><path d="M242.23 459.56L151.92 643.2" stroke="hsl(228.5, 77.2%, 51.5%)" stroke-width="1.5"></path><path d="M242.23 459.56L246.69 680.31" stroke="hsl(228.5, 77.2%, 51.5%)" stroke-width="1.5"></path><path d="M245.15 577.51L245.15 577.51" stroke="hsl(228.5, 77.2%, 51.5%)" stroke-width="1.5"></path><path d="M245.15 577.51L246.69 680.31" stroke="hsl(228.5, 77.2%, 51.5%)" stroke-width="1.5"></path><path d="M246.69 680.31L246.69 680.31" stroke="hsl(228.5, 77.2%, 51.5%)" stroke-width="1.5"></path><path d="M246.69 680.31L255.82 767.57" stroke="hsl(228.5, 77.2%, 51.5%)" stroke-width="1.5"></path><path d="M246.69 680.31L149.98 753.74" stroke="hsl(228.5, 77.2%, 51.5%)" stroke-width="1.5"></path><path d="M246.69 680.31L379.96 741.23" stroke="hsl(228.5, 77.2%, 51.5%)" stroke-width="1.5"></path><path d="M246.69 680.31L360.42 551.39" stroke="hsl(228.5, 77.2%, 51.5%)" stroke-width="1.5"></path><path d="M255.82 767.57L255.82 767.57" stroke="hsl(228.5, 77.2%, 51.5%)" stroke-width="1.5"></path><path d="M255.82 767.57L245.38 867.61" stroke="hsl(228.5, 77.2%, 51.5%)" stroke-width="1.5"></path><path d="M255.82 767.57L149.98 753.74" stroke="hsl(228.5, 77.2%, 51.5%)" stroke-width="1.5"></path><path d="M255.82 767.57L332.55 856.84" stroke="hsl(228.5, 77.2%, 51.5%)" stroke-width="1.5"></path><path d="M245.38 867.61L245.38 867.61" stroke="hsl(228.5, 77.2%, 51.5%)" stroke-width="1.5"></path><path d="M245.38 867.61L332.55 856.84" stroke="hsl(228.5, 77.2%, 51.5%)" stroke-width="1.5"></path><path d="M365.04 -26.99L365.04 -26.99" stroke="hsl(228.5, 77.2%, 51.5%)" stroke-width="1.5"></path><path d="M365.04 -26.99L368.38 29.16" stroke="hsl(228.5, 77.2%, 51.5%)" stroke-width="1.5"></path><path d="M365.04 -26.99L478.21 -66.61" stroke="hsl(228.5, 77.2%, 51.5%)" stroke-width="1.5"></path><path d="M365.04 -26.99L362.05 159.5" stroke="hsl(228.5, 77.2%, 51.5%)" stroke-width="1.5"></path><path d="M365.04 -26.99L434.94 171.88" stroke="hsl(228.5, 77.2%, 51.5%)" stroke-width="1.5"></path><path d="M365.04 -26.99L269.92 230.15" stroke="hsl(228.5, 77.2%, 51.5%)" stroke-width="1.5"></path><path d="M368.38 29.16L368.38 29.16" stroke="hsl(228.5, 77.2%, 51.5%)" stroke-width="1.5"></path><path d="M368.38 29.16L362.05 159.5" stroke="hsl(228.5, 77.2%, 51.5%)" stroke-width="1.5"></path><path d="M362.05 159.5L362.05 159.5" stroke="hsl(228.5, 77.2%, 51.5%)" stroke-width="1.5"></path><path d="M362.05 159.5L471.55 245.73" stroke="hsl(228.5, 77.2%, 51.5%)" stroke-width="1.5"></path><path d="M362.05 159.5L433.66 35.14" stroke="hsl(228.5, 77.2%, 51.5%)" stroke-width="1.5"></path><path d="M348.8 374.39L348.8 374.39" stroke="hsl(228.5, 77.2%, 51.5%)" stroke-width="1.5"></path><path d="M332.55 856.84L332.55 856.84" stroke="hsl(228.5, 77.2%, 51.5%)" stroke-width="1.5"></path><path d="M332.55 856.84L437.03 883.78" stroke="hsl(228.5, 77.2%, 51.5%)" stroke-width="1.5"></path><path d="M478.21 -66.61L478.21 -66.61" stroke="hsl(228.5, 77.2%, 51.5%)" stroke-width="1.5"></path><path d="M478.21 -66.61L368.38 29.16" stroke="hsl(228.5, 77.2%, 51.5%)" stroke-width="1.5"></path><path d="M478.21 -66.61L434.94 171.88" stroke="hsl(228.5, 77.2%, 51.5%)" stroke-width="1.5"></path><path d="M471.55 245.73L471.55 245.73" stroke="hsl(228.5, 77.2%, 51.5%)" stroke-width="1.5"></path><path d="M463.14 438.65L463.14 438.65" stroke="hsl(228.5, 77.2%, 51.5%)" stroke-width="1.5"></path><path d="M463.14 438.65L474.86 561.83" stroke="hsl(228.5, 77.2%, 51.5%)" stroke-width="1.5"></path><path d="M474.86 561.83L474.86 561.83" stroke="hsl(228.5, 77.2%, 51.5%)" stroke-width="1.5"></path><path d="M474.86 561.83L454.43 640.03" stroke="hsl(228.5, 77.2%, 51.5%)" stroke-width="1.5"></path><path d="M454.43 640.03L454.43 640.03" stroke="hsl(228.5, 77.2%, 51.5%)" stroke-width="1.5"></path><path d="M454.43 640.03L456.47 768.1" stroke="hsl(228.5, 77.2%, 51.5%)" stroke-width="1.5"></path><path d="M456.47 768.1L456.47 768.1" stroke="hsl(228.5, 77.2%, 51.5%)" stroke-width="1.5"></path><path d="M456.47 768.1L437.03 883.78" stroke="hsl(228.5, 77.2%, 51.5%)" stroke-width="1.5"></path><path d="M437.03 883.78L437.03 883.78" stroke="hsl(228.5, 77.2%, 51.5%)" stroke-width="1.5"></path><circle r="25" cx="149.98" cy="753.74" fill="url(#SvgjsRadialGradient1062)"></circle><circle r="25" cx="157.1" cy="857.4" fill="url(#SvgjsRadialGradient1062)"></circle><circle r="25" cx="376.47" cy="264.17" fill="url(#SvgjsRadialGradient1062)"></circle><circle r="25" cx="360.42" cy="551.39" fill="url(#SvgjsRadialGradient1062)"></circle><circle r="25" cx="379.96" cy="741.23" fill="url(#SvgjsRadialGradient1062)"></circle><circle r="25" cx="433.66" cy="35.14" fill="url(#SvgjsRadialGradient1062)"></circle><circle r="25" cx="434.94" cy="171.88" fill="url(#SvgjsRadialGradient1062)"></circle><circle r="25" cx="439.03" cy="346.82" fill="url(#SvgjsRadialGradient1062)"></circle><circle r="5" cx="-61.67" cy="778.68" fill="#8b9ad9"></circle><circle r="5" cx="33.86" cy="650.28" fill="#8b9ad9"></circle><circle r="5" cx="51.49" cy="767.4" fill="#8b9ad9"></circle><circle r="5" cx="30.91" cy="877.67" fill="#8b9ad9"></circle><circle r="5" cx="151.92" cy="643.2" fill="#8b9ad9"></circle><circle r="5" cx="269.92" cy="230.15" fill="#8b9ad9"></circle><circle r="5" cx="272.14" cy="338.56" fill="#8b9ad9"></circle><circle r="5" cx="242.23" cy="459.56" fill="#8b9ad9"></circle><circle r="5" cx="245.15" cy="577.51" fill="#8b9ad9"></circle><circle r="5" cx="246.69" cy="680.31" fill="#8b9ad9"></circle><circle r="5" cx="255.82" cy="767.57" fill="#8b9ad9"></circle><circle r="5" cx="245.38" cy="867.61" fill="#8b9ad9"></circle><circle r="5" cx="365.04" cy="-26.99" fill="#8b9ad9"></circle><circle r="5" cx="368.38" cy="29.16" fill="#8b9ad9"></circle><circle r="5" cx="362.05" cy="159.5" fill="#8b9ad9"></circle><circle r="5" cx="348.8" cy="374.39" fill="#8b9ad9"></circle><circle r="5" cx="332.55" cy="856.84" fill="#8b9ad9"></circle><circle r="5" cx="478.21" cy="-66.61" fill="#8b9ad9"></circle><circle r="5" cx="471.55" cy="245.73" fill="#8b9ad9"></circle><circle r="5" cx="463.14" cy="438.65" fill="#8b9ad9"></circle><circle r="5" cx="474.86" cy="561.83" fill="#8b9ad9"></circle><circle r="5" cx="454.43" cy="640.03" fill="#8b9ad9"></circle><circle r="5" cx="456.47" cy="768.1" fill="#8b9ad9"></circle><circle r="5" cx="437.03" cy="883.78" fill="#8b9ad9"></circle></g><defs><mask id="SvgjsMask1060"><rect width="360" height="812" fill="#ffffff"></rect></mask><linearGradient x1="0%" y1="50%" x2="100%" y2="50%" gradientUnits="userSpaceOnUse" id="SvgjsLinearGradient1061"><stop stop-color="#0e2a47" offset="0"></stop><stop stop-color="rgba(255, 255, 255, 1)" offset="1"></stop></linearGradient><radialGradient id="SvgjsRadialGradient1062"><stop stop-color="#ffffff" offset="0.1"></stop><stop stop-color="#1735b3" offset="0.2"></stop><stop stop-color="rgba(23, 53, 179, 0)" offset="1"></stop></radialGradient></defs></svg>